<?xml version="1.0" standalone="no"?>
<!DOCTYPE svg PUBLIC "-//W3C//DTD SVG 20010904//EN"
 "http://www.w3.org/TR/2001/REC-SVG-20010904/DTD/svg10.dtd">
<svg version="1.0" xmlns="http://www.w3.org/2000/svg"
 width="600.000000pt" height="600.000000pt" viewBox="0 0 600.000000 600.000000"
 preserveAspectRatio="xMidYMid meet">
<metadata>
Created by potrace 1.14, written by Peter Selinger 2001-2017
</metadata>
<g transform="translate(0.000000,600.000000) scale(0.100000,-0.100000)"
fill="#000000" stroke="none">
<path d="M2908 5777 c-185 -177 -331 -421 -435 -722 -31 -89 -80 -285 -89
-350 -3 -27 -8 -53 -10 -56 -1 -3 -6 -28 -9 -55 -4 -27 -8 -60 -11 -74 -12
-71 -19 -238 -19 -435 1 -221 9 -354 30 -505 2 -14 7 -49 10 -77 l6 -53 -138
-1 c-334 -3 -937 -20 -1228 -35 -77 -4 -148 -6 -157 -6 -10 0 -18 -3 -18 -7 0
-5 17 -9 38 -9 20 0 64 -1 97 -2 58 -2 59 -3 20 -10 -22 -4 -44 -5 -50 -2 -6
3 -6 1 -2 -4 5 -5 23 -10 40 -10 18 -1 82 -4 142 -8 104 -5 255 -11 515 -21
579 -21 2117 -21 2665 0 39 1 149 5 245 9 96 3 227 9 290 13 63 3 127 6 143 6
15 0 27 5 27 10 0 5 -7 7 -15 4 -8 -4 -17 -2 -20 3 -4 6 21 11 62 11 111 2
142 4 148 10 3 4 -29 7 -72 8 -43 2 -103 4 -133 6 -188 11 -508 21 -1040 30
-339 6 -380 10 -365 35 6 10 13 56 20 128 4 37 8 78 10 91 10 60 19 260 19
406 0 144 -12 382 -19 395 -2 3 -6 34 -10 70 -11 109 -64 338 -111 479 -101
302 -245 544 -434 728 -72 70 -69 70 -142 0z m177 -319 c66 -73 114 -139 168
-232 l46 -79 -50 -56 c-231 -260 -408 -712 -464 -1186 -3 -27 -8 -63 -10 -80
-5 -36 -15 -226 -17 -311 l-2 -61 -40 1 -41 1 1 60 c0 72 13 300 18 335 2 14
7 52 11 85 4 32 9 68 11 80 2 11 7 36 10 55 58 378 229 792 430 1038 l44 53
-36 57 c-42 65 -112 160 -127 169 -11 6 -37 -23 -105 -122 -127 -182 -236
-454 -286 -715 -3 -14 -7 -34 -9 -45 -3 -11 -8 -45 -12 -75 -4 -30 -9 -62 -10
-71 -2 -9 -7 -52 -11 -95 -3 -43 -8 -92 -10 -109 -5 -45 -5 -434 0 -480 2 -22
7 -82 11 -132 l7 -93 -41 0 c-36 0 -41 3 -42 23 0 12 -2 33 -4 47 -10 73 -19
284 -18 426 0 179 7 287 29 444 3 25 7 56 9 70 5 39 43 217 57 263 6 23 12 47
14 52 7 33 59 175 89 246 57 133 129 258 207 359 36 46 113 130 120 130 3 0
27 -24 53 -52z"/>
<path d="M815 3400 c3 -5 8 -10 11 -10 2 0 4 5 4 10 0 6 -5 10 -11 10 -5 0 -7
-4 -4 -10z"/>
<path d="M980 3232 c-85 -10 -157 -56 -190 -121 -18 -35 -16 -140 3 -177 22
-42 65 -77 123 -100 117 -46 168 -78 176 -109 18 -70 -76 -116 -121 -59 -11
15 -21 40 -21 55 0 29 -3 31 -60 31 -11 0 -40 0 -65 -1 l-45 -1 0 -95 0 -95
51 -29 c102 -58 251 -65 334 -16 74 43 106 103 106 197 1 116 -44 165 -209
228 -91 35 -112 51 -112 84 0 54 87 80 122 36 10 -12 18 -36 18 -54 l0 -31 75
2 c41 1 80 2 85 2 6 1 10 38 10 89 l0 88 -42 25 c-24 13 -54 28 -68 32 -33 11
-139 23 -170 19z"/>
<path d="M3325 3230 c-129 -11 -202 -76 -212 -188 -10 -114 38 -173 191 -231
92 -36 126 -63 126 -103 0 -86 -137 -89 -141 -3 -1 14 -2 30 -3 36 -1 9 -66
13 -159 10 -10 -1 -13 -24 -13 -91 1 -103 7 -113 93 -149 121 -50 264 -34 337
36 64 63 84 191 41 273 -19 37 -86 82 -165 110 -119 44 -148 69 -131 113 11
27 29 37 71 37 29 0 59 -22 61 -43 1 -23 8 -49 13 -54 8 -8 145 -7 153 1 5 4
8 44 8 88 l1 81 -38 25 c-58 38 -150 59 -233 52z"/>
<path d="M1330 3070 l0 -151 72 3 72 3 2 57 c2 59 15 88 40 88 11 0 14 -38 14
-208 0 -198 -1 -210 -20 -227 -17 -16 -20 -29 -18 -79 l3 -61 120 0 120 0 3
64 c2 51 0 66 -15 76 -15 12 -17 34 -18 211 0 209 1 224 17 224 22 0 37 -37
38 -93 l0 -58 72 3 71 3 -1 125 c0 69 -1 135 -1 148 l-1 22 -285 0 -285 0 0
-150z"/>
<path d="M1980 2938 c-39 -201 -60 -288 -72 -300 -13 -13 -18 -34 -18 -81 l0
-63 113 1 112 0 3 68 c2 55 0 67 -12 67 -17 0 -32 42 -21 59 3 6 35 11 71 11
l64 0 0 -30 c0 -16 -6 -33 -14 -37 -14 -8 -19 -44 -17 -108 l1 -31 125 0 c119
0 125 1 126 20 3 73 -1 107 -14 121 -9 8 -18 23 -21 33 -5 17 -116 540 -116
548 0 2 -58 4 -128 4 l-128 0 -54 -282z m186 14 c7 -37 15 -83 19 -103 l6 -35
-41 -2 -41 -3 6 43 c4 24 12 71 19 105 8 34 12 65 10 68 -2 3 -1 2 3 -1 4 -3
13 -35 19 -72z"/>
<path d="M2490 3159 c0 -47 4 -65 17 -74 16 -12 18 -35 18 -225 0 -190 -2
-213 -18 -224 -13 -10 -17 -28 -17 -77 l0 -65 122 1 122 0 2 60 c1 47 -3 64
-17 78 -15 14 -19 32 -19 82 l0 65 43 0 c74 0 80 -10 84 -146 3 -65 8 -124 13
-129 7 -9 138 -13 183 -6 14 2 8 123 -7 135 -9 7 -16 38 -19 86 -4 69 -7 76
-36 101 l-32 26 26 17 c37 24 58 80 58 151 -1 75 -21 125 -64 158 -52 39 -100
47 -286 47 l-173 0 0 -61z m332 -109 c24 -30 24 -92 -1 -114 -11 -10 -38 -18
-67 -19 l-49 -2 -3 69 c-2 38 -1 74 2 81 8 22 98 10 118 -15z"/>
<path d="M3689 3203 c-4 -74 1 -106 17 -117 15 -12 17 -35 18 -226 0 -191 -2
-214 -18 -225 -15 -12 -21 -55 -17 -125 1 -13 20 -16 123 -15 l123 0 1 68 c1
50 -2 67 -12 67 -19 0 -26 35 -22 110 l3 65 55 0 c82 1 80 3 80 -86 0 -62 -3
-80 -17 -87 -12 -7 -17 -25 -18 -63 -1 -30 0 -59 2 -64 2 -7 50 -10 125 -10
l121 0 -1 64 c-1 47 -5 67 -16 73 -14 8 -16 40 -16 228 0 178 3 221 14 227 16
9 19 21 17 86 l-1 47 -124 0 -124 0 2 -61 c2 -45 7 -64 19 -71 13 -7 17 -24
17 -81 l0 -73 -67 1 -68 0 -3 66 c-2 53 1 69 16 87 15 16 19 36 18 75 l-1 52
-122 3 c-112 2 -123 1 -124 -15z"/>
<path d="M4340 3162 c0 -45 5 -63 18 -76 17 -15 19 -35 19 -224 1 -191 -1
-209 -19 -228 -15 -17 -18 -33 -16 -80 l3 -59 123 0 122 -1 0 64 c0 50 -4 68
-17 77 -16 12 -17 36 -18 221 0 187 1 210 17 226 13 13 18 34 18 78 l0 60
-125 0 -125 0 0 -58z"/>
<path d="M4680 3159 c0 -47 4 -65 17 -74 15 -11 17 -36 17 -225 1 -189 -1
-213 -17 -225 -13 -9 -17 -27 -17 -77 l0 -64 120 0 c66 0 121 3 121 6 1 3 3
30 5 60 2 44 -1 58 -17 73 -11 10 -19 31 -19 50 l0 33 72 1 c185 3 243 66 241
264 -2 93 -19 148 -59 185 -46 44 -102 54 -299 54 l-165 0 0 -61z m306 -110
c34 -11 44 -30 44 -90 0 -54 -18 -71 -84 -77 l-56 -4 0 89 0 90 33 1 c17 1 46
-3 63 -9z"/>
<path d="M2138 2385 c-2 -2 -131 -6 -288 -10 -277 -6 -369 -9 -630 -20 -350
-15 -408 -25 -157 -27 79 -1 52 -18 -30 -19 -43 -1 -91 -2 -108 -4 -16 -1 -54
-3 -84 -4 -95 -2 -50 -10 99 -17 237 -10 275 -12 510 -19 376 -12 409 -13 590
-15 l174 -2 -54 -33 c-30 -18 -87 -53 -126 -78 l-71 -45 -1 -48 c0 -27 -3
-202 -7 -389 -11 -576 -13 -725 -10 -725 1 0 85 144 186 320 l184 319 153 0
c84 -1 156 1 158 4 3 2 -33 149 -81 326 -47 176 -85 327 -85 334 0 11 71 15
137 8 6 0 16 -22 22 -48 11 -45 14 -59 26 -123 7 -38 14 -70 25 -125 13 -65
19 -94 25 -127 5 -24 41 -206 50 -248 1 -8 6 -35 11 -60 4 -25 9 -48 10 -52 1
-5 2 -12 3 -16 0 -4 24 -8 52 -8 l50 0 -6 54 c-3 29 -8 59 -10 65 -2 7 -6 28
-9 47 -6 39 -73 411 -81 450 -3 14 -9 50 -14 80 -5 30 -12 67 -16 83 -8 30
-11 29 89 28 32 0 60 -2 62 -4 4 -3 27 -125 39 -197 3 -19 14 -80 25 -135 10
-55 22 -116 25 -135 3 -19 12 -69 20 -110 7 -41 19 -108 26 -147 7 -40 15 -73
18 -74 43 -8 83 -3 90 10 7 13 84 293 96 351 12 51 108 436 111 438 5 7 155 8
160 1 2 -4 -14 -76 -37 -160 -22 -85 -42 -161 -44 -169 -2 -8 -23 -88 -48
-177 l-44 -163 36 0 c20 -1 92 -2 160 -3 l124 -2 179 -310 c99 -170 183 -314
187 -318 5 -5 7 27 6 70 -2 43 -7 254 -10 468 -7 375 -12 587 -14 612 -1 9
-55 48 -86 62 -5 2 -43 25 -83 51 l-74 47 163 2 c280 4 781 18 949 26 47 3
139 7 205 10 115 6 165 14 94 16 -19 1 -56 2 -84 4 -27 1 -87 3 -132 4 -46 0
-83 5 -83 10 0 4 8 8 18 8 86 0 164 4 160 9 -3 3 -55 7 -114 9 -60 3 -143 7
-184 9 -41 3 -154 8 -250 11 -96 3 -242 8 -325 11 -160 6 -2022 14 -2027 9z
m232 -276 c0 -9 -51 -47 -127 -94 -71 -43 -130 -79 -131 -81 -2 -1 -8 -38 -13
-81 -5 -43 -11 -92 -14 -110 -3 -18 -8 -63 -11 -100 -9 -100 -20 -97 -18 4 1
49 3 155 5 238 l2 149 141 87 141 87 12 -42 c7 -22 13 -48 13 -57z m1463 -37
c31 -19 57 -37 58 -41 0 -3 3 -91 5 -196 2 -104 6 -209 7 -232 5 -70 -10 -49
-18 25 -4 37 -8 74 -10 82 -1 8 -6 47 -9 85 -13 134 -21 150 -86 178 -8 4 -55
33 -105 65 -96 62 -94 59 -74 134 l10 38 82 -52 c45 -28 108 -67 140 -86z"/>
<path d="M2203 2102 l-123 -77 0 -49 c0 -46 1 -48 18 -34 16 14 165 107 228
143 30 17 31 19 21 56 -5 22 -12 39 -16 38 -3 0 -61 -35 -128 -77z"/>
<path d="M3616 2168 c-20 -63 -22 -60 97 -132 62 -38 124 -77 140 -88 l27 -19
0 40 c0 23 -7 47 -17 58 -14 15 -163 110 -236 150 -4 2 -9 -2 -11 -9z"/>
<path d="M2935 1422 c-75 -13 -101 -47 -98 -128 2 -63 9 -80 27 -65 10 8 13 2
14 -26 1 -29 10 -46 42 -77 37 -37 40 -39 40 -18 0 30 22 71 54 101 17 16 26
35 26 54 0 32 9 32 15 0 6 -29 6 -29 15 -8 22 51 1 134 -37 150 -32 13 -77 21
-98 17z"/>
<path d="M2692 1333 c-39 -37 -84 -90 -101 -118 -89 -141 -96 -325 -21 -500
l21 -49 27 34 c32 42 82 90 92 90 32 0 47 -96 44 -266 -4 -176 30 -268 120
-324 45 -27 119 -40 111 -19 -11 31 -11 118 2 172 21 91 71 157 166 216 43 26
85 92 90 141 2 19 -2 56 -9 83 -11 44 -11 47 3 35 30 -24 56 -100 56 -160 l0
-58 24 32 c95 129 128 335 74 467 -22 54 -61 116 -103 161 -28 31 -128 114
-128 107 0 -3 9 -27 21 -54 28 -63 29 -153 3 -212 l-20 -45 -17 46 c-11 28
-27 49 -43 57 -14 6 -26 11 -28 11 -1 0 1 -19 4 -42 8 -54 -11 -105 -62 -173
-26 -34 -38 -61 -39 -85 -1 -19 -2 -42 -3 -50 -2 -8 -3 -26 -4 -39 l-2 -25
-30 29 c-51 49 -78 119 -91 230 -13 122 -24 135 -77 90 l-30 -25 -7 28 c-15
51 -16 57 -17 108 0 36 8 69 26 109 14 32 24 60 22 62 -2 2 -36 -26 -74 -64z"/>
</g>
</svg>
